<?xml version="1.0" encoding="utf-8"?>
<!-- Generator: Adobe Illustrator 26.3.1, SVG Export Plug-In . SVG Version: 6.00 Build 0)  -->
<svg version="1.1" id="Layer_1" xmlns="http://www.w3.org/2000/svg" xmlns:xlink="http://www.w3.org/1999/xlink" x="0px" y="0px"
	 viewBox="0 0 1392.8 347.9" style="enable-background:new 0 0 1392.8 347.9;" xml:space="preserve">
<style type="text/css">
	.st0{fill:#FFFFFF;}
</style>
<g>
	<path class="st0" d="M444.7,3.7c-40.2,6.3-71.3,35.4-79.5,74.4c-1.7,8.3-2,25.9-0.4,34.5c5.4,30.3,26.9,57.5,55,69.4
		c13.8,5.9,21,7.3,37.5,7.3c14.3,0,15.6-0.2,27.5-3.7c7-2.1,15.8-3.9,20-4.2c6.7-0.5,7.8-0.3,10.3,1.6c1.5,1.2,2.7,2.8,2.7,3.6
		c0,0.8,0.4,1.4,1,1.4c0.6,0,1-11.2,1-31.5c0-20.3-0.4-31.5-1-31.5c-0.5,0-1,2.4-1,5.3c-0.1,21.3-12.7,42.1-31,51
		c-9.2,4.5-21.7,7-31.7,6.4c-18.5-1.2-33.9-16.5-41.7-41.4c-8.2-26.3-8.2-73.6,0-99.7c8-25.4,23-40.3,41.8-41.5
		c22.7-1.5,46.4,10.4,56.6,28.3c3.2,5.6,6,14.4,6,18.7c0,1.5,0.5,2.8,1,2.8c0.6,0,1-9,1-25c0-13.8-0.3-25-0.8-25
		c-0.4,0-1.2,1-1.7,2.2c-2.6,5.7-13,6.1-30,0.9c-5.5-1.7-12.9-3.5-16.5-4.1C464.5,3.1,449.9,2.8,444.7,3.7L444.7,3.7z"/>
	<path class="st0" d="M822.3,4.5c-30.3,6.3-54.1,24.4-67.1,51c-7.4,15.1-9,22.3-9,41c0,13.6,0.3,17.2,2.3,24
		c8.4,29.5,30.9,53.9,59,63.9c33.4,11.9,70.2,4,95.8-20.6c16.6-15.9,25.7-34.2,28.4-57.2c1.4-12.1,0.1-26-3.7-38
		c-9.6-30.4-34.5-54.1-65.8-62.6C851.8,3.2,832,2.5,822.3,4.5L822.3,4.5z M855.5,9.7c10.7,5.1,20.8,18.1,26.3,33.9
		c5,14.5,6.4,26.4,6.4,52.9c0,27.1-1.2,37.4-6.1,52.4c-5.4,16.7-14.5,28.6-26.1,34.3c-6.3,3.1-7.4,3.3-17.2,3.3
		c-9.5,0-11.1-0.3-16.4-2.9c-11.9-5.8-21.4-18.6-26.9-36.2c-8.3-26.4-8.3-74.4,0-100.7C805.8,13.2,830.6-2.1,855.5,9.7L855.5,9.7z"
		/>
	<path class="st0" d="M1184.8,5.7c-10,5.1-10.7,18.7-1.2,25c1.9,1.3,4.9,2.3,6.8,2.3c2.6,0,3.3,0.4,3.3,1.8c0,2.9-4.4,6.3-8.9,6.9
		c-2.3,0.3-4.1,1-4.1,1.6c0,1.5,8.4,0.1,12.8-2.2c10.6-5.5,16.2-19.7,11.4-29.1C1201.2,4.7,1192.3,1.9,1184.8,5.7L1184.8,5.7z"/>
	<path class="st0" d="M1287.9,5.1c-22.8,2.9-43.3,16.7-51.4,34.5c-3.2,7.1-5.1,16.3-4.4,21.3c0.9,6.5,5.7,15.7,11.6,22.3
		c7.2,8,23.8,21.1,36.1,28.4c5.7,3.4,16.4,9.7,23.8,14c14.5,8.5,25,17.3,28.4,23.8c1.5,2.9,2.1,5.8,2.1,10.1
		c-0.1,19.2-17.7,30.6-44.9,29.1c-10.8-0.6-17.5-2.4-27.8-7.8c-8.3-4.3-22.2-18.3-26-26c-3.4-7-5.7-15.9-5.7-21.5
		c0-2.4-0.4-4.3-1-4.3c-0.6,0-1,10.8-1,30.5c0,28.1,0.8,36.6,2.4,26.5c1.3-8.4,7.2-8.9,27.3-2.2c17.1,5.7,22.1,6.6,37.8,6.5
		c15.9,0,23.4-1.5,35.3-7c29-13.3,37.6-54.1,16.4-77.6c-5.3-5.9-14-11.7-34.9-23.4c-23.3-13.1-31.6-18.8-39.2-27
		c-7.5-8-9.6-13.7-8.8-24c1.1-14.7,8.3-21.9,24.4-24.4c7.8-1.2,19.8,0.1,28.1,3.2c13.8,5.2,23.8,22.1,25.8,44
		c1.3,14.1,2.4,5.8,2.4-19V9.5l-2.4,2.9c-2.2,2.7-2.6,2.9-7,2.2c-2.6-0.4-9.1-2.5-14.4-4.7c-6.7-2.8-12.2-4.3-17.7-5
		c-4.4-0.5-8.2-0.9-8.5-0.8C1294.4,4.2,1291.4,4.7,1287.9,5.1L1287.9,5.1z"/>
	<path class="st0" d="M14.7,6.8c0,0.5,2,1.1,4.5,1.5c6.7,0.9,13.5,4.9,19.2,11.1c4.5,4.9,8.3,12.8,42.4,87.5
		c20.6,45.2,37.7,82.1,38,82.1c0.3,0,13.3-28.3,28.9-62.8c35-77.4,40.7-89.3,45.8-96.8c8.1-11.9,21-21.3,29.1-21.4
		c1.8,0,3.2-0.5,3.2-1c0-0.6-9-1-25-1c-23.1,0-30.2,0.8-21.6,2.4c4.1,0.8,8.2,5.3,9.1,10.1c0.9,4.6-0.2,11.5-3,19.3
		c-2.8,7.8-44.8,100.1-45.5,100.2c-0.3,0-11.9-25-26-55.7c-21.9-48-25.5-56.6-25.8-61.5c-0.3-4.7,0-6.2,1.5-7.9C91.8,10,96,8,99.1,8
		c1.4,0,2.6-0.5,2.6-1c0-0.7-15.2-1-43.5-1C34.3,6,14.7,6.4,14.7,6.8L14.7,6.8z"/>
	<path class="st0" d="M247.7,6.7c0,0.4,2.7,1.3,6,1.9c7.8,1.5,12.4,4.5,15.7,10.1l2.8,4.7l0.3,71c0.2,39.1,0,72.8-0.3,75.1
		c-0.7,5.1-4.6,11.3-9,14.3c-1.8,1.3-6,2.8-9.4,3.4c-3.4,0.7-6.1,1.5-6.1,1.9c0,0.4,21.1,0.8,47,0.8c25.9,0,47-0.3,47-0.8
		c0-0.4-2.7-1.3-6-1.9c-7.8-1.5-12.4-4.5-15.7-10.1l-2.8-4.7V98V23.5l2.3-4.3c2.9-5.5,8.4-9.1,16.1-10.5c3.4-0.6,6.1-1.5,6.1-1.9
		c0-0.4-21.1-0.8-47-0.8C268.8,6,247.7,6.3,247.7,6.7L247.7,6.7z"/>
	<path class="st0" d="M548.2,7.2c-0.8,2.5-6.6,42.3-6.5,44.8c0,3.3,1.5,0.9,2.4-4c0.9-4.8,5.7-14,10.1-19.4c4.7-5.8,15.3-13,23-15.7
		c7.8-2.8,19.4-4.8,27.3-4.8l6.2,0v79.8c0,88.7,0.1,86.8-6.5,93.4c-3.5,3.5-11.3,6.8-16.1,6.8c-1.3,0-2.4,0.5-2.4,1
		c0,0.7,16.3,1,47,1c25.9,0,47-0.3,47-0.8c0-0.4-2.7-1.3-6-1.9c-7.8-1.5-12.4-4.5-15.7-10.1l-2.8-4.7l-0.2-82.4l-0.2-82.4l9.8,0.6
		c18.1,1.1,32.2,6.7,42.9,17c7,6.7,12.7,16.7,13.8,24.2c0.4,2.5,1.1,4.5,1.6,4.5c0.5,0,0.9-0.5,0.9-1.1c0-1.3-5.9-40.3-6.7-44.2
		L716.5,6h-84C566.2,6,548.5,6.2,548.2,7.2L548.2,7.2z"/>
	<path class="st0" d="M953.7,6.8c0,0.5,2.2,1.1,4.8,1.4c7.1,0.7,13.8,4.3,17,9.1l2.7,4.1l0.3,75c0.3,83.4,0.5,81-6.3,86.2
		c-3.7,2.8-11.2,5.4-15.7,5.4c-1.5,0-2.8,0.5-2.8,1c0,0.7,16,1,46,1c25.3,0,46-0.3,46-0.8c0-0.4-2.8-1.3-6.2-2
		c-7.5-1.5-10.6-3.6-13.5-9.3c-2.2-4.3-2.3-5-2.3-40.2V102h14c20.5,0,20.1-0.3,26.8,22c10.5,35,23.1,55.9,38.1,62.9
		c5.5,2.6,6.2,2.6,28.3,2.9c15.7,0.2,22.8,0,22.8-0.8c0-0.6-1.3-1.1-2.8-1.1c-6.3,0-13.4-3.1-18.3-8c-6-6-10.2-14.4-16.9-33.5
		c-8.7-24.9-14.5-34.2-24.7-39.7c-5.8-3.2-15.2-5.8-20.7-5.8c-5.1,0-3.6-1.3,3.4-2.9c8.9-2.1,19.5-7.6,26-13.7
		c10.6-9.9,15.3-23.3,13-37.8c-2.9-18.8-16-31.3-39.5-37.8c-7.7-2.1-9.9-2.2-63.7-2.6C975.3,6,953.7,6.2,953.7,6.8L953.7,6.8z
		 M1052.4,9.1c6.4,2.4,11.7,10.1,14.9,22c1.4,4.9,1.8,10.1,1.8,22.4c0,13.7-0.3,17.1-2.2,24c-3,10.5-7.7,17.6-13.4,20.4
		c-3.8,1.8-6.2,2.1-17.1,2.1h-12.7V54V8h12.9C1043.7,8,1050.8,8.5,1052.4,9.1L1052.4,9.1z"/>
	<path class="st0" d="M53,232.1c-11.5,1.5-23.1,9.6-28.1,19.8c-2.3,4.7-2.7,6.9-2.7,13.6s0.4,8.8,2.7,13.1
		c3.8,7.3,11.2,13.4,23.1,19.2c16.4,8,20,12.4,14,17.2c-5.5,4.3-16.6,2-28.3-5.8c-3.4-2.3-6.6-3.9-7.3-3.6
		c-1.5,0.6-13.7,21.1-13.7,23c0,2,5.4,5.8,14.2,9.9c25,11.9,56.4,6,65.7-12.3c2.7-5.2,4.4-14.8,3.8-20.3
		c-1.4-11.9-9.5-20.3-28.2-29.4c-17.5-8.5-20-11-15.4-15.6c3.2-3.2,12.3-2.3,21.8,2.1c8.5,4,7.5,4.6,14.8-9.7
		c5.3-10.4,5.2-10.8-2.7-14.8C76.3,233.3,63.2,230.8,53,232.1L53,232.1z M74,239.7c2.9,0.9,6.9,2.4,9,3.4l3.8,1.9l-3.5,7l-3.5,6.9
		l-5.8-2.7c-4.6-2.2-7.2-2.7-13.2-2.7c-8.4,0-12,1.7-14.7,6.8c-3.8,7.2,1.7,13.9,16.5,20.2c24.2,10.3,31.8,21.3,26.6,38.6
		c-5.7,19.1-34.7,25.7-60.5,13.8c-3.8-1.8-7.4-3.7-7.9-4.4c-0.8-0.9,0.1-3.1,3.1-8.1c2.3-3.8,4.3-7,4.4-7.1c0.1-0.1,3,1.4,6.1,3.3
		c18.4,11.1,38,6.9,36.1-7.8c-0.8-5.8-4.3-8.8-17.6-15.3c-14.1-6.9-19.1-10.8-22.5-17.7c-7.5-15,2-32.4,20.4-37.5
		C56,236.8,66.4,237.4,74,239.7L74,239.7z"/>
	<path class="st0" d="M432.7,232.1c-12.1,1.3-23,6.7-32.1,16c-26.1,26.6-19.1,74.4,13.2,90.3c22.8,11.2,47.3,7.5,64.3-9.8
		c26.2-26.6,20.2-72.3-11.9-90.1C455.9,232.7,445.4,230.7,432.7,232.1L432.7,232.1z M455.4,240c20,6.9,33.3,26.1,33.3,48
		c0,14.5-5,27-14.6,36.7c-26.5,26.6-72.3,14.2-81.8-22.2c-2-7.7-2-21.7,0.1-28.6c5.6-18.9,20.4-32.4,39.4-35.9
		C437.9,236.8,448.7,237.7,455.4,240L455.4,240z"/>
	<path class="st0" d="M554.7,232.1c-27.6,3-48,26.7-48,55.8c0,11.1,1.7,19,6.1,27.7c16.2,32.3,61.1,39.2,86.9,13.4
		c22.5-22.5,22.4-58.9-0.2-81.5C587.1,235.2,572.4,230.1,554.7,232.1L554.7,232.1z M570.8,238.4c24.6,5.2,41.3,27.7,39.6,53.1
		c-1.5,21.3-12.8,37-32.2,44.6c-5,2-7.8,2.3-17,2.3s-12-0.4-17-2.4c-15-5.9-24.2-15.5-29.5-31.1c-3.1-9.1-3.1-23.9-0.1-32.9
		c6.9-20.4,25.4-34.2,46.6-34.9C562.8,237,567.2,237.6,570.8,238.4L570.8,238.4z"/>
	<path class="st0" d="M794.6,232.1c-16.7,1.8-28.9,14-28.9,28.9c0,5.3,2.5,12.9,5.9,18l3,4.4l-6.3,4.2
		c-16.2,10.9-20.9,23.4-14.4,38.6c7.2,16.9,36.4,23.9,57.3,13.8c3.3-1.6,7.2-3.7,8.8-4.7l2.8-1.8l4.8,4.8l4.8,4.7l17-0.3
		c15.4-0.3,16.9-0.5,16.9-2c0-1-4.7-6.8-10.5-12.9c-8.8-9.4-10.3-11.3-9.3-12.7c3-4.3,9.3-15,10.7-18.3c1.3-3,1.3-3.9,0.2-5.4
		c-1.2-1.8-2-1.6-15.7,2.3l-14.4,4.2l-4.9-4.9l-5-4.9l7.1-6.6c11.6-10.7,13.8-20.4,7.6-33.3C826.2,236.1,812.4,230.2,794.6,232.1
		L794.6,232.1z M814.5,240c6.5,2.9,11.8,8.4,13.8,14.3c3.3,9.9-0.1,17.3-12.2,26.5c-3.8,2.9-6.9,5.6-6.9,6.1
		c0,1.7,14.7,17.1,16.3,17.1c0.9,0,6.5-1.4,12.5-3.1s11.1-2.9,11.4-2.6c0.6,0.7-5.5,10.7-8.9,14.6c-1.6,1.8-2.7,3.7-2.6,4.2
		c0.2,0.5,4.2,5.1,9.1,10.4l8.8,9.6h-10.3h-10.4l-4.9-5c-2.7-2.8-5.7-5-6.7-5c-1,0-4.4,1.7-7.8,3.9c-9.2,5.9-14.8,7.5-26,7.5
		c-11.1,0-16.1-1.3-22.7-5.8c-8.1-5.5-12.2-16.5-9.3-25.3c1.6-4.9,9.7-12.8,17.8-17.4c3.8-2.2,6.1-4.1,6.2-5.2c0-1-1.5-3.9-3.5-6.6
		c-12.7-17.6-6.1-35.7,14.6-40.1C799.1,236.7,809,237.6,814.5,240L814.5,240z"/>
	<path class="st0" d="M936.9,232.1c-22.7,3-37.2,27.1-27.9,46.2c3.7,7.6,9.9,12.8,23.2,19.5c14.4,7.2,16.5,8.7,16.5,12
		c0,5-3.3,7.2-10.4,7.2c-5.7,0-11.2-2.1-20-7.7c-5.3-3.4-7.1-4.1-8.2-3.2c-1.7,1.4-13.4,21.3-13.4,22.7c0,2.7,16.9,11.8,26,14
		c20.5,4.9,42.1-0.2,51.2-12.3c4.7-6.2,7.2-15.2,6.6-23.2c-1-13.1-8.2-21.1-27.9-30.7c-14.6-7.1-18.2-9.9-17.3-13.3
		c1.4-5.4,13-5.6,23.3-0.4c3.5,1.8,6.9,3,7.7,2.7c0.8-0.3,3.7-5.2,6.6-11c6.1-12.2,6.1-12.2-4.7-17.1
		C957.5,232.6,947,230.8,936.9,232.1L936.9,232.1z M950.5,238c6.7,1.1,15.6,4.1,18.6,6.2c1.7,1.3,1.7,1.6-1.3,7.5
		c-1.7,3.4-3.4,6.2-3.8,6.2c-0.4,0-3.8-1.1-7.8-2.5c-8.1-2.9-13.8-3.2-19.4-0.9c-4.6,1.9-7.1,5.2-7.3,9.9
		c-0.2,6.5,4.3,10.5,18.3,16.5c13.9,5.9,21,11.4,25,19.3c3,6,2.3,16.3-1.8,23.7c-8.4,15.3-35.7,19.7-57.8,9.1
		c-10.3-4.9-10.2-4.7-5.5-12.6c2.3-3.9,4.3-7.1,4.4-7.3c0.1-0.1,2.9,1.4,6.1,3.3c9.9,5.9,18.5,7.7,26.7,5.4
		c6.2-1.7,8.9-4.8,9.4-10.6c0.4-4.5,0.1-5.4-2.7-8.6c-2.2-2.5-7.1-5.6-15.5-9.7c-18.4-9-24-15.6-23.9-28
		c0.2-12.5,9.4-23.3,22.7-26.5C941.6,236.8,942.9,236.8,950.5,238L950.5,238z"/>
	<path class="st0" d="M110.8,234.3c-0.8,1-1.1,16.2-0.9,54.8l0.3,53.4h32h32l0.3-11.8c0.2-7.9-0.1-12.3-0.8-13.2
		c-0.9-1.1-4.8-1.4-18.1-1.4h-17l0.3-7.3l0.3-7.2l16.5-0.3c11.6-0.2,16.7-0.7,17.2-1.5c1.4-2.2,1-22.3-0.5-23.5
		c-0.8-0.7-7.5-1.2-17.2-1.4l-16-0.3l-0.3-7.2l-0.3-7.3l17.8-0.2l17.8-0.3l0.3-11.9c0.2-7.9-0.1-12.3-0.9-13.2
		C171.9,232.4,112.5,232.3,110.8,234.3L110.8,234.3z M168.7,246.5v7.5l-17.2,0.3l-17.2,0.3l-0.3,12.4c-0.2,9.2,0,12.6,1,13.3
		c0.7,0.5,8.4,0.8,17,0.8h15.8v7v7h-15.8c-8.7,0-16.3,0.4-17,0.8c-1,0.6-1.2,4.1-1,13.3l0.3,12.4l17.2,0.3l17.2,0.3v7.5v7.5h-26.5
		h-26.5v-49v-49h26.5h26.5V246.5L168.7,246.5z"/>
	<path class="st0" d="M227.9,234.2c-2.1,2.7-43.4,106.7-42.8,107.7c1,1.6,29,1.4,30.3-0.2c0.5-0.7,2.4-5.4,4.3-10.5l3.3-9.2h17.6
		h17.7l3.9,10.2l3.9,10.2l14.7,0.3c12.3,0.3,14.8,0.1,15.3-1.2c0.5-1.4-39.2-101.8-42.2-106.4c-1.3-2.1-2.1-2.2-13.3-2.2
		C232.5,233,228.6,233.4,227.9,234.2L227.9,234.2z M269.3,287.5c10.6,26.4,19.4,48.3,19.4,48.8c0,0.4-4.2,0.8-9.3,0.8h-9.2l-3.4-9.3
		c-1.8-5.1-3.8-9.8-4.3-10.5c-1.5-1.9-41.2-1.8-43.1,0.1c-0.8,0.8-2.9,5.5-4.6,10.5l-3.3,9.1H202c-7.2,0-9.4-0.3-9.1-1.3
		c0.2-0.7,9.1-22.7,19.8-49l19.3-47.8l9,0.3l9,0.3L269.3,287.5L269.3,287.5z"/>
	<path class="st0" d="M308.9,234.2c-1.7,1.7-1.7,105.9,0,107.6c0.8,0.8,5.4,1.2,14,1.2c11.6,0,12.8-0.2,13.8-2
		c0.6-1.1,1.1-9.8,1.1-21v-19l16.2-0.3l16.2-0.3V288v-12.5l-16.2-0.3l-16.2-0.3v-7.5V260h16.8c11.7,0,17.2-0.4,18-1.2
		c0.8-0.8,1.2-5,1.2-12.3c0-7.3-0.4-11.5-1.2-12.3C370.8,232.5,310.6,232.5,308.9,234.2L308.9,234.2z M367.7,246.5v7.5l-17.8,0.3
		l-17.7,0.3l-0.3,12.6c-0.3,15.1-1.9,13.9,18.5,13.9h14.3v7v7h-14.6c-8.1,0-15.4,0.5-16.5,1c-1.8,1-1.9,2.3-1.9,21v20h-9h-9v-49v-49
		h27h27V246.5L367.7,246.5z"/>
	<path class="st0" d="M630.9,233.7c-1,0.7-1.2,12.3-1,54.8l0.2,53.9l18.2,0.3c28.1,0.4,38.9-2.8,52.4-15.5c8-7.6,13-16.6,15.4-27.7
		c1.9-8.8,1.9-14.2,0-23c-4.1-19.7-18.2-34.7-38.5-41c-4.2-1.3-10.3-1.8-25.5-2.2C641.2,233.1,631.6,233.3,630.9,233.7L630.9,233.7z
		 M673,240.5c43.5,9.2,52.7,66.9,14.3,89.9c-8.5,5.1-16.6,6.6-36.1,6.6h-16.5v-48.4c0-26.6,0.3-48.7,0.7-49
		C636.6,238.3,666.1,239,673,240.5L673,240.5z"/>
	<path class="st0" d="M992.9,233.8c-1,0.6-1.2,4-1,13.2l0.3,12.4l11.7,0.3l11.8,0.3v40.2c0,30,0.3,40.6,1.2,41.5
		c1.7,1.7,25.9,1.7,27.6,0c0.9-0.9,1.2-11.5,1.2-41.5v-40.2l11.8-0.3l11.8-0.3l0.3-12.4c0.2-9.2,0-12.6-1-13.2
		c-0.7-0.5-17.7-0.9-37.8-0.9C1010.6,233,993.6,233.4,992.9,233.8L992.9,233.8z M1064.5,246.7l0.3,7.2l-12.3,0.3l-12.3,0.3
		l-0.2,41.2l-0.2,41.2h-9h-9v-40.9c0-36.4-0.2-41-1.6-41.5c-0.9-0.3-6.5-0.6-12.5-0.6h-10.9v-6.8c0-3.8,0.3-7.1,0.7-7.5
		c0.4-0.4,15.5-0.5,33.7-0.4l33.1,0.3L1064.5,246.7L1064.5,246.7z"/>
	<path class="st0" d="M1084,233.8c-1,0.6-1.2,12.3-1.1,54.8l0.2,53.9l30.9,0.3c22,0.2,31.3-0.1,32.3-0.9c1.8-1.5,1.9-22.8,0.1-24.6
		c-0.8-0.8-6.3-1.2-18-1.2h-16.8v-7.5V301l16.8-0.3l16.8-0.3V288v-12.5l-16.8-0.3l-16.8-0.3v-7.5V260h16.8c11.7,0,17.2-0.4,18-1.2
		c0.8-0.8,1.2-5,1.2-12.3c0-7.3-0.4-11.5-1.2-12.3C1145,232.8,1086.2,232.4,1084,233.8L1084,233.8z M1141.7,246.5v7.5h-16.8
		c-11.7,0-17.2,0.4-18,1.2c-0.8,0.8-1.2,5.1-1.2,12.4c0,10.1,0.2,11.4,1.9,12.3c1.1,0.6,8.5,1,17,1h15.1v7v7h-15.1
		c-8.5,0-15.9,0.5-17,1c-1.7,0.9-1.9,2.2-1.9,11.9c0,6,0.3,11.6,0.6,12.4c0.5,1.4,3.1,1.6,18,1.6h17.4v7.5v7.5h-27h-27v-48.4
		c0-26.6,0.3-48.6,0.7-49c0.4-0.4,12.5-0.7,27-0.7h26.3V246.5L1141.7,246.5z"/>
	<path class="st0" d="M1200.2,235.3c-2.8,4.4-42.7,104.9-42.2,106.3c0.4,1.1,3.5,1.4,15,1.4h14.5l1.4-2.8c0.8-1.5,2.6-6.2,4.2-10.5
		l2.8-7.7h17.6h17.7l3.3,9.2c1.8,5.1,3.8,9.8,4.3,10.5c1.4,1.8,29.6,1.8,30.3,0c0.5-1.3-40.8-105-42.7-107.4
		c-0.7-0.9-4.7-1.3-13-1.3C1202.4,233,1201.6,233.1,1200.2,235.3L1200.2,235.3z M1223,240.3c15.8,39.1,38.7,96.1,38.7,96.3
		c0,0.2-4.2,0.4-9.4,0.4h-9.4l-3.2-9.1c-1.8-5-3.9-9.7-4.6-10.5c-1.9-1.9-41.6-2-43.1-0.1c-0.5,0.7-2.5,5.4-4.3,10.5l-3.3,9.3h-9.3
		c-5.1,0-9.3-0.2-9.3-0.6c0-0.3,8.4-21.4,18.6-46.8c10.2-25.4,19-47.2,19.5-48.5c0.8-2.1,1.5-2.2,9.8-2.2
		C1219.8,239,1222.6,239.4,1223,240.3L1223,240.3z"/>
	<path class="st0" d="M1281.8,234.3c-0.8,1-1,16.2-0.8,54.8l0.2,53.4h14h14l0.2-18.8c0.1-10.3,0.6-18.8,1-18.8
		c0.4,0,8.1,8.5,17.2,19l16.4,19l18.1-0.3c17.7-0.2,18.1-0.3,18.1-2.4c0-1.3-8.5-11.8-23.2-28.4c-20.4-23.1-23.1-26.6-22-28.1
		c0.7-1,9.9-11.9,20.5-24.3s19.2-23.2,19.2-24c0-2.2-3.2-2.6-18.9-2.3l-14.5,0.3l-15.5,18.4l-15.6,18.5l-0.2-17.9
		c-0.2-12.8-0.6-18.1-1.5-18.7c-0.7-0.4-6.7-0.8-13.4-0.8C1285.9,233,1282.6,233.3,1281.8,234.3L1281.8,234.3z M1304.7,260.5
		c0.4,17.7,0.7,21,2,21.3c0.9,0.2,8.5-8.1,19.5-21.3l18-21.6h10.4c9.8,0,10.3,0.1,8.9,1.7c-20.4,23.8-36.8,43.7-36.8,44.7
		c0,0.7,9.4,11.8,20.8,24.7s21.4,24.3,22.1,25.2c1.3,1.6,0.5,1.7-11,1.6l-12.3,0l-15.5-18c-20.7-24-22.5-25.9-24.4-25.9
		c-1.4,0-1.6,2.4-1.9,21.8l-0.2,21.8l-8.8,0.3l-8.8,0.3V288v-49.1l8.8,0.3l8.8,0.3L1304.7,260.5L1304.7,260.5z"/>
	<path class="st0" d="M432.4,255c-5.9,1.5-9.2,3.6-13.6,8.6c-7.5,8.5-10.3,20.8-7.7,33.3c3.5,16.6,12.3,24.3,28.1,24.5
		c6.8,0.1,8.9-0.3,13.7-2.7c8.7-4.3,14-12.7,15.7-24.6c2.3-16.5-5.2-32.6-17.5-37.7C446.6,254.5,437.2,253.8,432.4,255L432.4,255z
		 M447.1,261.3c9.3,2.8,15.9,13.7,16,26.7c0.1,8.7-1.9,15-6.2,20.1c-6.9,8-17.8,10.2-27.9,5.5c-9.1-4.2-14.3-15.9-12.9-29
		C417.9,266.7,431.4,256.6,447.1,261.3L447.1,261.3z"/>
	<path class="st0" d="M554.3,255.1c-6.1,1.5-11.1,4.9-14.9,9.8c-5.5,7.3-7.2,13.1-7.2,24.1c0,8.3,0.4,10.3,2.8,15.6
		c4.9,10.7,12,15.8,23.5,17c12.4,1.3,23.2-4.9,28.9-16.5c2.5-5,2.7-6.7,2.7-16.6c0-9.8-0.3-11.6-2.6-16.5
		c-3.4-7.3-7.9-12.3-13.4-14.9C568.8,254.6,559.9,253.7,554.3,255.1L554.3,255.1z M573.4,263.6c7.1,4.5,10.6,11.5,11.2,22.5
		c0.5,11.3-1.4,17.5-7.4,23.4c-5.2,5.1-10.5,6.9-18.9,6.1c-11.9-1.1-19.4-10.1-20.4-24.6c-0.8-11.1,1.4-17.9,7.8-24.2
		c2.6-2.6,6.3-5.3,8.1-5.8C559.6,259.3,568.2,260.4,573.4,263.6L573.4,263.6z"/>
	<path class="st0" d="M797.1,249c-5.4,2.2-8.5,10.2-6.4,16.6c1.3,4,7.5,11.4,9.5,11.4c2.3,0,10.7-6.3,12.6-9.4
		C819,257.4,808.2,244.5,797.1,249L797.1,249z M806.7,256c3.2,3.2,2.6,7.3-1.5,10.9c-2,1.7-4,3.1-4.5,3.1c-1.4,0-5-6.5-5-9.1
		C795.7,254.7,802.4,251.7,806.7,256L806.7,256z"/>
	<path class="st0" d="M786.1,296.9c-6.9,4.2-10.2,12.9-7.1,18.8c3.5,6.7,15.3,8.4,24.7,3.6c8.8-4.5,8.8-5-1.5-15.3
		c-5.4-5.4-9.8-9-11-9C790.1,295,787.8,295.8,786.1,296.9L786.1,296.9z M796.9,306.7c3.2,3.1,5.8,6,5.8,6.4c0,1.4-6.3,3.2-10.7,3.2
		c-7.1-0.1-10-4-7.2-9.6c1-2,4.7-5.6,5.8-5.7C790.8,301,793.7,303.6,796.9,306.7L796.9,306.7z"/>
	<path class="st0" d="M236.9,270.2c-1.1,2.9-4.1,10.7-6.6,17.2c-2.5,6.5-4.3,12.3-4,12.8c0.3,0.5,7,0.9,14.9,0.9
		c11,0,14.5-0.3,14.5-1.3c0-1.7-11.8-31.9-13.1-33.4C240.5,263.8,238.8,265,236.9,270.2L236.9,270.2z M244.5,286
		c1.7,4.4,3.1,8.5,3.1,9c0,0.5-3.2,0.9-7.1,0.9c-5.2,0-7-0.3-6.7-1.3c2.5-7.3,6.4-16.7,6.9-16.7C241.1,278,242.8,281.6,244.5,286
		L244.5,286z"/>
	<path class="st0" d="M654.5,255c-1.7,1-1.8,3.6-1.8,32.9c0,27.3,0.2,32,1.5,33.1c2.2,1.8,12.7,0.5,19-2.4
		c6.7-3.1,12.1-8.5,15.4-15.5c2.3-4.8,2.6-6.9,2.6-15.1c0-7.8-0.4-10.4-2.4-14.8c-3.1-6.8-11.3-14.5-17.8-16.5
		C664.5,254.6,656.5,253.8,654.5,255L654.5,255z M670.2,262.4c4.6,1.9,9.3,6.3,12.3,11.5c2.4,4.1,2.7,5.6,2.7,14.1
		c0,7.3-0.4,10.3-1.9,13c-4.3,8-11.8,13.5-20.1,14.7l-4.5,0.6V288v-28.2l4.2,0.7C665.2,260.9,668.5,261.8,670.2,262.4L670.2,262.4z"
		/>
	<path class="st0" d="M1210.7,267.3c-0.5,1.2-3.4,8.9-6.5,17s-5.4,15.2-5,15.8c0.8,1.3,28.1,1.4,28.9,0.1
		c0.6-0.9-10.9-31.5-12.7-33.8C1213.9,264.3,1211.7,264.8,1210.7,267.3L1210.7,267.3z M1217.4,286.3c1.8,4.6,3.2,8.6,3.2,9
		c0,0.4-3.1,0.7-7,0.7c-3.9,0-7-0.4-7-0.9c0-1.6,6.3-17.1,6.9-17.1C1213.9,278,1215.6,281.7,1217.4,286.3L1217.4,286.3z"/>
</g>
</svg>
